<?xml version="1.0" encoding="UTF-8"?>
<svg id="Layer_1" xmlns="http://www.w3.org/2000/svg" version="1.1" viewBox="0 0 1908.05 698.96">
  <!-- Generator: Adobe Illustrator 29.3.1, SVG Export Plug-In . SVG Version: 2.1.0 Build 151)  -->
  <defs>
    <style>
      .st0 {
        fill: #006341;
      }

      .st1 {
        fill: #fff;
      }
    </style>
  </defs>
  <g>
    <g>
      <path d="M10.52,679.3l11.09-2.28c9.78-2.28,12.72-3.91,12.72-23.8v-155.56c0-19.89-2.94-21.52-12.72-23.81l-11.09-2.28v-9.13h177.09l3.25,67.51h-10.1c-7.84-18.26-12.72-26.75-18.92-35.88-9.78-14.35-15-17.28-39.14-17.28-15,0-24.12,1.63-29.02,2.94v88.05h5.87c25.11,0,29.35-2.61,33.92-9.78,4.56-7.83,7.18-15.01,10.43-26.75h9.45v88.7h-9.45c-3.25-11.41-5.87-19.56-10.43-28.04-5.23-8.81-8.48-10.11-33.92-10.11h-5.87v71.43c0,19.89,1.63,21.19,13.05,23.48l14.67,2.61v9.13H10.52v-9.13Z"/>
      <g>
        <path d="M206.83,603.97c0-62.62,44.35-89.35,88.37-89.35,47.29,0,88.7,28.37,88.7,87.73,0,62.62-43.69,90-88.7,90-47.29,0-88.37-28.69-88.37-88.38ZM329.12,605.6c0-65.87-12.72-78.27-34.9-78.27-20.56,0-32.62,15-32.62,71.09,0,66.86,10.76,81.21,34.57,81.21,19.57,0,32.95-11.42,32.95-74.03Z"/>
        <path d="M429.54,648.98v-93.27c0-13.7-.64-15.01-10.11-20.55l-11.4-6.52v-6.85l69.78-7.18,3.93,2.94v118.71c0,19.24,7.49,26.75,22.18,26.75,11.73,0,22.82-3.92,30.66-6.53v-100.77c0-13.7-.99-15.33-10.44-20.55l-11.09-6.52v-6.85l69.46-7.18,3.91,2.94v131.75c0,15.98.99,17.94,10.77,21.85l9.45,3.91v7.83l-67.51,9.45-3.58-2.61.64-21.85h-1.62c-17.29,12.71-37.19,24.45-62.3,24.45s-42.72-14.68-42.72-43.37Z"/>
        <path d="M629.09,679.63l8.48-2.28c10.77-2.94,12.08-4.57,12.08-18.59v-101.43c0-14.02-1.63-15-10.77-21.19l-10.76-7.18v-6.52l68.82-7.83,3.58,2.28-.64,20.87h1.3c17.28-12.4,38.81-23.16,62.61-23.16,27.72,0,42.72,14.35,42.72,43.7v100.45c0,14.35,1.3,15.98,11.73,18.59l8.48,2.28v8.8h-90.98v-8.8l7.82-1.96c9.78-2.61,10.76-3.58,10.76-18.91v-87.73c0-19.9-7.16-26.09-22.49-26.09-11.42,0-23.16,2.61-30.34,4.24v109.58c0,15.65.99,16.3,10.77,18.91l7.82,1.96v8.8h-90.99v-8.8Z"/>
        <path d="M847.73,609.51c0-67.83,43.69-94.9,94.57-94.9,8.8,0,17.93,1.63,24.78,3.59,0,0-.66-12.07-.66-23.81v-10.44c0-15.33-1.63-16.63-10.1-20.87l-13.38-7.18v-7.5l73.06-6.53,3.25,2.61s-.97,15.33-.97,38.15v166.64c0,15.98.97,17.94,10.76,21.85l9.45,3.91v7.83l-67.5,9.45-3.58-2.61.64-18.59h-1.3c-14.02,12.07-32.29,21.19-55.11,21.19-32.29,0-63.92-23.48-63.92-82.84ZM966.43,659.41v-118.06c-5.54-6.85-13.37-13.69-25.43-13.69-23.49,0-39.8,17.28-39.8,71.1s13.05,67.83,37.83,67.83c13.37,0,22.18-5.21,27.39-7.17Z"/>
        <path d="M1068.68,649.3c0-28.69,21.85-41.41,58.7-50.22l32.93-8.15v-28.37c0-27.07-5.21-35.22-23.15-35.22-9.78,0-13.05,2.61-13.69,11.74-1.63,20.54-8.48,28.69-25.44,28.69-14.35,0-22.18-7.5-22.18-20.22,0-20.87,26.74-32.93,72.07-32.93,40.77,0,64.58,12.72,64.58,44.68v90.33c0,12.06,1.3,16.95,7.49,20.22,4.24,2.28,10.77,2.93,15.33,3.26v7.83c-6.19,4.89-19.24,11.41-38.15,11.41s-30.34-7.17-33.92-19.89h-1.63c-8.15,10.44-22.82,19.89-44.02,19.89-30.66,0-48.92-15.65-48.92-43.05ZM1160.31,659.74v-52.18l-15,1.3c-16.63,1.3-25.44,8.81-25.44,32.29,0,21.2,9.45,28.05,22.18,28.05,9.14,0,15.33-3.92,18.26-9.46Z"/>
        <path d="M1273.12,647.35v-108.92h-20.54v-7.83c25.44-9.78,45.01-28.7,54.13-54.79h18.59v43.37h43.38l-4.24,19.25h-39.14v105.66c0,16.3,4.88,22.83,21.2,22.83,7.82,0,17.61-1.63,23.48-2.94v9.13c-7.84,7.18-24.14,19.24-51.53,19.24-29.35,0-45.34-13.04-45.34-45Z"/>
        <path d="M1391.15,679.63l8.48-2.28c10.77-2.94,12.08-4.57,12.08-18.59v-101.43c0-14.02-1.63-15-10.77-21.19l-10.76-7.18v-6.52l71.42-7.83,3.25,2.28c-.64,10.11-1.3,21.85-1.3,37.5v104.36c0,14.68,1.3,15.98,12.08,18.59l8.48,2.28v8.8h-92.96v-8.8ZM1407.47,471.89c0-15.98,12.72-27.07,28.69-27.07s28.69,11.09,28.69,27.07-12.71,26.75-28.69,26.75-28.69-11.09-28.69-26.75Z"/>
        <path d="M1504.55,603.97c0-62.62,44.35-89.35,88.37-89.35,47.29,0,88.7,28.37,88.7,87.73,0,62.62-43.69,90-88.7,90-47.29,0-88.37-28.69-88.37-88.38ZM1626.84,605.6c0-65.87-12.72-78.27-34.9-78.27-20.54,0-32.62,15-32.62,71.09,0,66.86,10.76,81.21,34.57,81.21,19.57,0,32.95-11.42,32.95-74.03Z"/>
        <path d="M1699.9,679.63l8.48-2.28c10.77-2.94,12.08-4.57,12.08-18.59v-101.43c0-14.02-1.63-15-10.77-21.19l-10.76-7.18v-6.52l68.82-7.83,3.58,2.28-.64,20.87h1.3c17.28-12.4,38.81-23.16,62.61-23.16,27.72,0,42.72,14.35,42.72,43.7v100.45c0,14.35,1.3,15.98,11.73,18.59l8.48,2.28v8.8h-90.98v-8.8l7.82-1.96c9.78-2.61,10.76-3.58,10.76-18.91v-87.73c0-19.9-7.16-26.09-22.49-26.09-11.42,0-23.16,2.61-30.34,4.24v109.58c0,15.65.99,16.3,10.77,18.91l7.82,1.96v8.8h-90.99v-8.8Z"/>
      </g>
    </g>
    <g>
      <path d="M81.83,335.46l18.08-3.39c17.11-3.88,20.04-5.83,20.1-35.63l.48-264.32h-10.62c-29.31-.06-36.16,3.35-49.87,22.38-11.75,16.59-19.61,35.14-33.84,68.83l-15.63-.03L14.64,10.44l300.7.53,3.7,112.87-15.14-.03c-14.11-33.74-22.38-52.32-34.08-68.95-14.13-20.06-19.5-22.51-49.79-22.57h-10.62s-.48,264.32-.48,264.32c-.05,29.8,2.39,31.76,19.97,35.7l18.07,3.45-.02,13.68-165.13-.3.02-13.68Z"/>
      <path d="M380.72,290.97c.08-42.99,32.85-61.99,88.09-75.08l49.37-12.12.08-42.51c.07-40.55-7.72-52.78-34.59-52.83-14.66-.03-19.55,3.87-20.55,17.55-2.5,30.78-12.78,42.98-38.19,42.93-21.5-.04-33.21-11.3-33.17-30.35.06-31.27,40.16-49.27,108.07-49.15,61.07.11,96.7,19.23,96.61,67.11l-.25,135.33c-.03,18.08,1.91,25.41,11.19,30.31,6.34,3.43,16.11,4.42,22.95,4.92l-.02,11.73c-9.29,7.31-28.85,17.04-57.19,16.99-28.34-.05-45.42-10.83-50.76-29.89h-2.45c-12.24,15.6-34.25,29.73-66.01,29.67-45.92-.08-73.24-23.58-73.17-64.62ZM517.98,306.85l.14-78.17-22.48,1.91c-24.92,1.91-38.13,13.12-38.2,48.3-.06,31.76,14.1,42.04,33.15,42.08,13.68.02,22.98-5.82,27.39-14.12Z"/>
      <path d="M698.79,336.9l12.7-3.4c16.13-4.37,18.09-6.81,18.13-27.82l.28-151.95c.04-21.01-2.4-22.47-16.06-31.79l-16.11-10.78.02-9.77,103.11-11.53,5.36,3.43-1.03,31.27h1.96c25.92-18.52,58.2-34.58,93.87-34.51,41.53.08,63.96,21.61,63.88,65.59l-.27,150.48c-.04,21.5,1.91,23.94,17.54,27.88l12.7,3.44-.02,13.19-136.31-.25.02-13.19,11.73-2.91c14.66-3.88,16.14-5.34,16.18-28.31l.24-131.43c.05-29.8-10.68-39.1-33.64-39.15-17.1-.03-34.7,3.84-45.45,6.27l-.3,164.16c-.04,23.45,1.42,24.43,16.07,28.37l11.73,2.95-.02,13.19-136.31-.25.02-13.19Z"/>
      <path d="M1056.55,224.13c.17-93.81,66.69-133.74,132.65-133.62,70.84.13,132.81,42.75,132.65,131.67-.17,93.81-65.72,134.72-133.14,134.6-70.85-.13-132.32-43.23-132.16-132.64ZM1239.76,226.91c.18-98.69-18.84-117.29-52.06-117.35-30.77-.06-48.9,22.39-49.05,106.42-.18,100.16,15.9,121.68,51.57,121.75,29.32.05,49.38-17.01,49.55-110.82Z"/>
      <path d="M1419.75,289.69l.3-163.18-30.78-.06.02-11.72c38.14-14.59,67.5-42.88,81.25-81.93l27.85.05-.12,64.98,64.98.12-6.41,28.81-58.63-.11-.29,158.3c-.04,24.43,7.27,34.21,31.7,34.25,11.72.02,26.38-2.39,35.18-4.33l-.02,13.68c-11.75,10.73-36.21,28.76-77.25,28.68-43.97-.08-67.87-19.66-67.78-67.54Z"/>
      <path d="M1632.23,225.01c.17-93.81,66.69-133.74,132.65-133.62,70.84.13,132.81,42.75,132.65,131.67-.17,93.81-65.72,134.72-133.14,134.6-70.85-.13-132.32-43.23-132.16-132.64ZM1815.44,227.79c.18-98.69-18.84-117.29-52.06-117.35-30.78-.06-48.9,22.39-49.05,106.42-.18,100.16,15.9,121.68,51.57,121.75,29.32.05,49.38-17.01,49.55-110.82Z"/>
    </g>
  </g>
  <g>
    <g>
      <path class="st1" d="M2085.42-1647.5l11.09-2.28c9.78-2.28,12.72-3.91,12.72-23.8v-155.56c0-19.89-2.94-21.52-12.72-23.81l-11.09-2.28v-9.13h177.09l3.25,67.51h-10.1c-7.84-18.26-12.72-26.75-18.92-35.88-9.78-14.35-15-17.28-39.14-17.28-15,0-24.12,1.63-29.02,2.94v88.05h5.87c25.11,0,29.35-2.61,33.92-9.78,4.56-7.83,7.18-15.01,10.43-26.75h9.45v88.7h-9.45c-3.25-11.41-5.87-19.56-10.43-28.04-5.23-8.81-8.48-10.11-33.92-10.11h-5.87v71.43c0,19.89,1.63,21.19,13.05,23.48l14.67,2.61v9.13h-110.88v-9.13Z"/>
      <g>
        <path class="st1" d="M2281.72-1722.84c0-62.62,44.35-89.35,88.37-89.35,47.29,0,88.7,28.37,88.7,87.73,0,62.62-43.69,90-88.7,90-47.29,0-88.37-28.69-88.37-88.38ZM2404.02-1721.2c0-65.87-12.72-78.27-34.9-78.27-20.56,0-32.62,15-32.62,71.09,0,66.86,10.76,81.21,34.57,81.21,19.57,0,32.95-11.42,32.95-74.03Z"/>
        <path class="st1" d="M2504.43-1677.83v-93.27c0-13.7-.64-15.01-10.11-20.55l-11.4-6.52v-6.85l69.78-7.18,3.93,2.94v118.71c0,19.24,7.49,26.75,22.18,26.75,11.73,0,22.82-3.92,30.66-6.53v-100.77c0-13.7-.99-15.33-10.44-20.55l-11.09-6.52v-6.85l69.46-7.18,3.91,2.94v131.75c0,15.98.99,17.94,10.77,21.85l9.45,3.91v7.83l-67.51,9.45-3.58-2.61.64-21.85h-1.62c-17.29,12.71-37.19,24.45-62.3,24.45s-42.72-14.68-42.72-43.37Z"/>
        <path class="st1" d="M2703.99-1647.17l8.48-2.28c10.77-2.94,12.08-4.57,12.08-18.59v-101.43c0-14.02-1.63-15-10.77-21.19l-10.76-7.18v-6.52l68.82-7.83,3.58,2.28-.64,20.87h1.3c17.28-12.4,38.81-23.16,62.61-23.16,27.72,0,42.72,14.35,42.72,43.7v100.45c0,14.35,1.3,15.98,11.73,18.59l8.48,2.28v8.8h-90.98v-8.8l7.82-1.96c9.78-2.61,10.76-3.58,10.76-18.91v-87.73c0-19.9-7.16-26.09-22.49-26.09-11.42,0-23.16,2.61-30.34,4.24v109.58c0,15.65.99,16.3,10.77,18.91l7.82,1.96v8.8h-90.99v-8.8Z"/>
        <path class="st1" d="M2922.62-1717.29c0-67.83,43.69-94.9,94.57-94.9,8.8,0,17.93,1.63,24.78,3.59,0,0-.66-12.07-.66-23.81v-10.44c0-15.33-1.63-16.63-10.1-20.87l-13.38-7.18v-7.5l73.06-6.53,3.25,2.61s-.97,15.33-.97,38.15v166.64c0,15.98.97,17.94,10.76,21.85l9.45,3.91v7.83l-67.5,9.45-3.58-2.61.64-18.59h-1.3c-14.02,12.07-32.29,21.19-55.11,21.19-32.29,0-63.92-23.48-63.92-82.84ZM3041.32-1667.39v-118.06c-5.54-6.85-13.37-13.69-25.43-13.69-23.49,0-39.8,17.28-39.8,71.1s13.05,67.83,37.83,67.83c13.37,0,22.18-5.21,27.39-7.17Z"/>
        <path class="st1" d="M3143.57-1677.51c0-28.69,21.85-41.41,58.7-50.22l32.93-8.15v-28.37c0-27.07-5.21-35.22-23.15-35.22-9.78,0-13.05,2.61-13.69,11.74-1.63,20.54-8.48,28.69-25.44,28.69-14.35,0-22.18-7.5-22.18-20.22,0-20.87,26.74-32.93,72.07-32.93,40.77,0,64.58,12.72,64.58,44.68v90.33c0,12.06,1.3,16.95,7.49,20.22,4.24,2.28,10.77,2.93,15.33,3.26v7.83c-6.19,4.89-19.24,11.41-38.15,11.41s-30.34-7.17-33.92-19.89h-1.63c-8.15,10.44-22.82,19.89-44.02,19.89-30.66,0-48.92-15.65-48.92-43.05ZM3235.21-1667.07v-52.18l-15,1.3c-16.63,1.3-25.44,8.81-25.44,32.29,0,21.2,9.45,28.05,22.18,28.05,9.14,0,15.33-3.92,18.26-9.46Z"/>
        <path class="st1" d="M3348.01-1679.46v-108.92h-20.54v-7.83c25.44-9.78,45.01-28.7,54.13-54.79h18.59v43.37h43.38l-4.24,19.25h-39.14v105.66c0,16.3,4.88,22.83,21.2,22.83,7.82,0,17.61-1.63,23.48-2.94v9.13c-7.84,7.18-24.14,19.24-51.53,19.24-29.35,0-45.34-13.04-45.34-45Z"/>
        <path class="st1" d="M3466.05-1647.17l8.48-2.28c10.77-2.94,12.08-4.57,12.08-18.59v-101.43c0-14.02-1.63-15-10.77-21.19l-10.76-7.18v-6.52l71.42-7.83,3.25,2.28c-.64,10.11-1.3,21.85-1.3,37.5v104.36c0,14.68,1.3,15.98,12.08,18.59l8.48,2.28v8.8h-92.96v-8.8ZM3482.36-1854.91c0-15.98,12.72-27.07,28.69-27.07s28.69,11.09,28.69,27.07-12.71,26.75-28.69,26.75-28.69-11.09-28.69-26.75Z"/>
        <path class="st1" d="M3579.44-1722.84c0-62.62,44.35-89.35,88.37-89.35,47.29,0,88.7,28.37,88.7,87.73,0,62.62-43.69,90-88.7,90-47.29,0-88.37-28.69-88.37-88.38ZM3701.74-1721.2c0-65.87-12.72-78.27-34.9-78.27-20.54,0-32.62,15-32.62,71.09,0,66.86,10.76,81.21,34.57,81.21,19.57,0,32.95-11.42,32.95-74.03Z"/>
        <path class="st1" d="M3774.79-1647.17l8.48-2.28c10.77-2.94,12.08-4.57,12.08-18.59v-101.43c0-14.02-1.63-15-10.77-21.19l-10.76-7.18v-6.52l68.82-7.83,3.58,2.28-.64,20.87h1.3c17.28-12.4,38.81-23.16,62.61-23.16,27.72,0,42.72,14.35,42.72,43.7v100.45c0,14.35,1.3,15.98,11.73,18.59l8.48,2.28v8.8h-90.98v-8.8l7.82-1.96c9.78-2.61,10.76-3.58,10.76-18.91v-87.73c0-19.9-7.16-26.09-22.49-26.09-11.42,0-23.16,2.61-30.34,4.24v109.58c0,15.65.99,16.3,10.77,18.91l7.82,1.96v8.8h-90.99v-8.8Z"/>
      </g>
    </g>
    <g>
      <path class="st1" d="M2156.72-1991.35l18.08-3.39c17.11-3.88,20.04-5.83,20.1-35.63l.48-264.32h-10.62c-29.31-.06-36.16,3.35-49.87,22.38-11.75,16.59-19.61,35.14-33.84,68.83l-15.63-.03,4.11-112.86,300.7.53,3.7,112.87-15.14-.03c-14.11-33.74-22.38-52.32-34.08-68.95-14.13-20.06-19.5-22.51-49.79-22.57h-10.62s-.48,264.32-.48,264.32c-.05,29.8,2.39,31.76,19.97,35.7l18.07,3.45-.02,13.68-165.13-.3.02-13.68Z"/>
      <path class="st1" d="M2455.62-2035.84c.08-42.99,32.85-61.99,88.09-75.08l49.37-12.12.08-42.51c.07-40.55-7.72-52.78-34.59-52.83-14.66-.03-19.55,3.87-20.55,17.55-2.5,30.78-12.78,42.98-38.19,42.93-21.5-.04-33.21-11.3-33.17-30.35.06-31.27,40.16-49.27,108.07-49.15,61.07.11,96.7,19.23,96.61,67.11l-.25,135.33c-.03,18.08,1.91,25.41,11.19,30.31,6.34,3.43,16.11,4.42,22.95,4.92l-.02,11.73c-9.29,7.31-28.85,17.04-57.19,16.99-28.34-.05-45.42-10.83-50.76-29.89h-2.45c-12.24,15.6-34.25,29.73-66.01,29.67-45.92-.08-73.24-23.58-73.17-64.62ZM2592.88-2019.96l.14-78.17-22.48,1.91c-24.92,1.91-38.13,13.12-38.2,48.3-.06,31.76,14.1,42.04,33.15,42.08,13.68.02,22.98-5.82,27.39-14.12Z"/>
      <path class="st1" d="M2773.69-1989.91l12.7-3.4c16.13-4.37,18.09-6.81,18.13-27.82l.28-151.95c.04-21.01-2.4-22.47-16.06-31.79l-16.11-10.78.02-9.77,103.11-11.53,5.36,3.43-1.03,31.27h1.96c25.92-18.52,58.2-34.58,93.87-34.51,41.53.08,63.96,21.61,63.88,65.59l-.27,150.48c-.04,21.5,1.91,23.94,17.54,27.88l12.7,3.44-.02,13.19-136.31-.25.02-13.19,11.73-2.91c14.66-3.88,16.14-5.34,16.18-28.31l.24-131.43c.05-29.8-10.68-39.1-33.64-39.15-17.1-.03-34.7,3.84-45.45,6.27l-.3,164.16c-.04,23.45,1.42,24.43,16.07,28.37l11.73,2.95-.02,13.19-136.31-.25.02-13.19Z"/>
      <path class="st1" d="M3131.45-2102.67c.17-93.81,66.69-133.74,132.65-133.62,70.84.13,132.81,42.75,132.65,131.67-.17,93.81-65.72,134.72-133.14,134.6-70.85-.13-132.32-43.23-132.16-132.64ZM3314.65-2099.89c.18-98.69-18.84-117.29-52.06-117.35-30.77-.06-48.9,22.39-49.05,106.42-.18,100.16,15.9,121.68,51.57,121.75,29.32.05,49.38-17.01,49.55-110.82Z"/>
      <path class="st1" d="M3494.65-2037.11l.3-163.18-30.78-.06.02-11.72c38.14-14.59,67.5-42.88,81.25-81.93l27.85.05-.12,64.98,64.98.12-6.41,28.81-58.63-.11-.29,158.3c-.04,24.43,7.27,34.21,31.7,34.25,11.72.02,26.38-2.39,35.18-4.33l-.02,13.68c-11.75,10.73-36.21,28.76-77.25,28.68-43.97-.08-67.87-19.66-67.78-67.54Z"/>
      <path class="st1" d="M3707.13-2101.8c.17-93.81,66.69-133.74,132.65-133.62,70.84.13,132.81,42.75,132.65,131.67-.17,93.81-65.72,134.72-133.14,134.6-70.85-.13-132.32-43.23-132.16-132.64ZM3890.33-2099.02c.18-98.69-18.84-117.29-52.06-117.35-30.78-.06-48.9,22.39-49.05,106.42-.18,100.16,15.9,121.68,51.57,121.75,29.32.05,49.38-17.01,49.55-110.82Z"/>
    </g>
  </g>
  <g>
    <g>
      <path class="st0" d="M10.52-1647.5l11.09-2.28c9.78-2.28,12.72-3.91,12.72-23.8v-155.56c0-19.89-2.94-21.52-12.72-23.81l-11.09-2.28v-9.13h177.09l3.25,67.51h-10.1c-7.84-18.26-12.72-26.75-18.92-35.88-9.78-14.35-15-17.28-39.14-17.28-15,0-24.12,1.63-29.02,2.94v88.05h5.87c25.11,0,29.35-2.61,33.92-9.78,4.56-7.83,7.18-15.01,10.43-26.75h9.45v88.7h-9.45c-3.25-11.41-5.87-19.56-10.43-28.04-5.23-8.81-8.48-10.11-33.92-10.11h-5.87v71.43c0,19.89,1.63,21.19,13.05,23.48l14.67,2.61v9.13H10.52v-9.13Z"/>
      <g>
        <path class="st0" d="M206.83-1722.84c0-62.62,44.35-89.35,88.37-89.35,47.29,0,88.7,28.37,88.7,87.73,0,62.62-43.69,90-88.7,90-47.29,0-88.37-28.69-88.37-88.38ZM329.12-1721.2c0-65.87-12.72-78.27-34.9-78.27-20.56,0-32.62,15-32.62,71.09,0,66.86,10.76,81.21,34.57,81.21,19.57,0,32.95-11.42,32.95-74.03Z"/>
        <path class="st0" d="M429.54-1677.83v-93.27c0-13.7-.64-15.01-10.11-20.55l-11.4-6.52v-6.85l69.78-7.18,3.93,2.94v118.71c0,19.24,7.49,26.75,22.18,26.75,11.73,0,22.82-3.92,30.66-6.53v-100.77c0-13.7-.99-15.33-10.44-20.55l-11.09-6.52v-6.85l69.46-7.18,3.91,2.94v131.75c0,15.98.99,17.94,10.77,21.85l9.45,3.91v7.83l-67.51,9.45-3.58-2.61.64-21.85h-1.62c-17.29,12.71-37.19,24.45-62.3,24.45s-42.72-14.68-42.72-43.37Z"/>
        <path class="st0" d="M629.09-1647.17l8.48-2.28c10.77-2.94,12.08-4.57,12.08-18.59v-101.43c0-14.02-1.63-15-10.77-21.19l-10.76-7.18v-6.52l68.82-7.83,3.58,2.28-.64,20.87h1.3c17.28-12.4,38.81-23.16,62.61-23.16,27.72,0,42.72,14.35,42.72,43.7v100.45c0,14.35,1.3,15.98,11.73,18.59l8.48,2.28v8.8h-90.98v-8.8l7.82-1.96c9.78-2.61,10.76-3.58,10.76-18.91v-87.73c0-19.9-7.16-26.09-22.49-26.09-11.42,0-23.16,2.61-30.34,4.24v109.58c0,15.65.99,16.3,10.77,18.91l7.82,1.96v8.8h-90.99v-8.8Z"/>
        <path class="st0" d="M847.73-1717.29c0-67.83,43.69-94.9,94.57-94.9,8.8,0,17.93,1.63,24.78,3.59,0,0-.66-12.07-.66-23.81v-10.44c0-15.33-1.63-16.63-10.1-20.87l-13.38-7.18v-7.5l73.06-6.53,3.25,2.61s-.97,15.33-.97,38.15v166.64c0,15.98.97,17.94,10.76,21.85l9.45,3.91v7.83l-67.5,9.45-3.58-2.61.64-18.59h-1.3c-14.02,12.07-32.29,21.19-55.11,21.19-32.29,0-63.92-23.48-63.92-82.84ZM966.43-1667.39v-118.06c-5.54-6.85-13.37-13.69-25.43-13.69-23.49,0-39.8,17.28-39.8,71.1s13.05,67.83,37.83,67.83c13.37,0,22.18-5.21,27.39-7.17Z"/>
        <path class="st0" d="M1068.68-1677.51c0-28.69,21.85-41.41,58.7-50.22l32.93-8.15v-28.37c0-27.07-5.21-35.22-23.15-35.22-9.78,0-13.05,2.61-13.69,11.74-1.63,20.54-8.48,28.69-25.44,28.69-14.35,0-22.18-7.5-22.18-20.22,0-20.87,26.74-32.93,72.07-32.93,40.77,0,64.58,12.72,64.58,44.68v90.33c0,12.06,1.3,16.95,7.49,20.22,4.24,2.28,10.77,2.93,15.33,3.26v7.83c-6.19,4.89-19.24,11.41-38.15,11.41s-30.34-7.17-33.92-19.89h-1.63c-8.15,10.44-22.82,19.89-44.02,19.89-30.66,0-48.92-15.65-48.92-43.05ZM1160.31-1667.07v-52.18l-15,1.3c-16.63,1.3-25.44,8.81-25.44,32.29,0,21.2,9.45,28.05,22.18,28.05,9.14,0,15.33-3.92,18.26-9.46Z"/>
        <path class="st0" d="M1273.12-1679.46v-108.92h-20.54v-7.83c25.44-9.78,45.01-28.7,54.13-54.79h18.59v43.37h43.38l-4.24,19.25h-39.14v105.66c0,16.3,4.88,22.83,21.2,22.83,7.82,0,17.61-1.63,23.48-2.94v9.13c-7.84,7.18-24.14,19.24-51.53,19.24-29.35,0-45.34-13.04-45.34-45Z"/>
        <path class="st0" d="M1391.15-1647.17l8.48-2.28c10.77-2.94,12.08-4.57,12.08-18.59v-101.43c0-14.02-1.63-15-10.77-21.19l-10.76-7.18v-6.52l71.42-7.83,3.25,2.28c-.64,10.11-1.3,21.85-1.3,37.5v104.36c0,14.68,1.3,15.98,12.08,18.59l8.48,2.28v8.8h-92.96v-8.8ZM1407.47-1854.91c0-15.98,12.72-27.07,28.69-27.07s28.69,11.09,28.69,27.07-12.71,26.75-28.69,26.75-28.69-11.09-28.69-26.75Z"/>
        <path class="st0" d="M1504.55-1722.84c0-62.62,44.35-89.35,88.37-89.35,47.29,0,88.7,28.37,88.7,87.73,0,62.62-43.69,90-88.7,90-47.29,0-88.37-28.69-88.37-88.38ZM1626.84-1721.2c0-65.87-12.72-78.27-34.9-78.27-20.54,0-32.62,15-32.62,71.09,0,66.86,10.76,81.21,34.57,81.21,19.57,0,32.95-11.42,32.95-74.03Z"/>
        <path class="st0" d="M1699.9-1647.17l8.48-2.28c10.77-2.94,12.08-4.57,12.08-18.59v-101.43c0-14.02-1.63-15-10.77-21.19l-10.76-7.18v-6.52l68.82-7.83,3.58,2.28-.64,20.87h1.3c17.28-12.4,38.81-23.16,62.61-23.16,27.72,0,42.72,14.35,42.72,43.7v100.45c0,14.35,1.3,15.98,11.73,18.59l8.48,2.28v8.8h-90.98v-8.8l7.82-1.96c9.78-2.61,10.76-3.58,10.76-18.91v-87.73c0-19.9-7.16-26.09-22.49-26.09-11.42,0-23.16,2.61-30.34,4.24v109.58c0,15.65.99,16.3,10.77,18.91l7.82,1.96v8.8h-90.99v-8.8Z"/>
      </g>
    </g>
    <g>
      <path class="st0" d="M81.83-1991.35l18.08-3.39c17.11-3.88,20.04-5.83,20.1-35.63l.48-264.32h-10.62c-29.31-.06-36.16,3.35-49.87,22.38-11.75,16.59-19.61,35.14-33.84,68.83l-15.63-.03,4.11-112.86,300.7.53,3.7,112.87-15.14-.03c-14.11-33.74-22.38-52.32-34.08-68.95-14.13-20.06-19.5-22.51-49.79-22.57h-10.62s-.48,264.32-.48,264.32c-.05,29.8,2.39,31.76,19.97,35.7l18.07,3.45-.02,13.68-165.13-.3.02-13.68Z"/>
      <path class="st0" d="M380.72-2035.84c.08-42.99,32.85-61.99,88.09-75.08l49.37-12.12.08-42.51c.07-40.55-7.72-52.78-34.59-52.83-14.66-.03-19.55,3.87-20.55,17.55-2.5,30.78-12.78,42.98-38.19,42.93-21.5-.04-33.21-11.3-33.17-30.35.06-31.27,40.16-49.27,108.07-49.15,61.07.11,96.7,19.23,96.61,67.11l-.25,135.33c-.03,18.08,1.91,25.41,11.19,30.31,6.34,3.43,16.11,4.42,22.95,4.92l-.02,11.73c-9.29,7.31-28.85,17.04-57.19,16.99-28.34-.05-45.42-10.83-50.76-29.89h-2.45c-12.24,15.6-34.25,29.73-66.01,29.67-45.92-.08-73.24-23.58-73.17-64.62ZM517.98-2019.96l.14-78.17-22.48,1.91c-24.92,1.91-38.13,13.12-38.2,48.3-.06,31.76,14.1,42.04,33.15,42.08,13.68.02,22.98-5.82,27.39-14.12Z"/>
      <path class="st0" d="M698.79-1989.91l12.7-3.4c16.13-4.37,18.09-6.81,18.13-27.82l.28-151.95c.04-21.01-2.4-22.47-16.06-31.79l-16.11-10.78.02-9.77,103.11-11.53,5.36,3.43-1.03,31.27h1.96c25.92-18.52,58.2-34.58,93.87-34.51,41.53.08,63.96,21.61,63.88,65.59l-.27,150.48c-.04,21.5,1.91,23.94,17.54,27.88l12.7,3.44-.02,13.19-136.31-.25.02-13.19,11.73-2.91c14.66-3.88,16.14-5.34,16.18-28.31l.24-131.43c.05-29.8-10.68-39.1-33.64-39.15-17.1-.03-34.7,3.84-45.45,6.27l-.3,164.16c-.04,23.45,1.42,24.43,16.07,28.37l11.73,2.95-.02,13.19-136.31-.25.02-13.19Z"/>
      <path class="st0" d="M1056.55-2102.67c.17-93.81,66.69-133.74,132.65-133.62,70.84.13,132.81,42.75,132.65,131.67-.17,93.81-65.72,134.72-133.14,134.6-70.85-.13-132.32-43.23-132.16-132.64ZM1239.76-2099.89c.18-98.69-18.84-117.29-52.06-117.35-30.77-.06-48.9,22.39-49.05,106.42-.18,100.16,15.9,121.68,51.57,121.75,29.32.05,49.38-17.01,49.55-110.82Z"/>
      <path class="st0" d="M1419.75-2037.11l.3-163.18-30.78-.06.02-11.72c38.14-14.59,67.5-42.88,81.25-81.93l27.85.05-.12,64.98,64.98.12-6.41,28.81-58.63-.11-.29,158.3c-.04,24.43,7.27,34.21,31.7,34.25,11.72.02,26.38-2.39,35.18-4.33l-.02,13.68c-11.75,10.73-36.21,28.76-77.25,28.68-43.97-.08-67.87-19.66-67.78-67.54Z"/>
      <path class="st0" d="M1632.23-2101.8c.17-93.81,66.69-133.74,132.65-133.62,70.84.13,132.81,42.75,132.65,131.67-.17,93.81-65.72,134.72-133.14,134.6-70.85-.13-132.32-43.23-132.16-132.64ZM1815.44-2099.02c.18-98.69-18.84-117.29-52.06-117.35-30.78-.06-48.9,22.39-49.05,106.42-.18,100.16,15.9,121.68,51.57,121.75,29.32.05,49.38-17.01,49.55-110.82Z"/>
    </g>
  </g>
  <rect x="2074.89" width="1940.97" height="972.19"/>
  <path class="st1" d="M2288.21,748.45l8.87-1.82c7.82-1.81,10.18-3.13,10.18-19.04v-124.47c0-15.9-2.35-17.22-10.18-19.04l-8.87-1.82v-7.31h141.68l2.6,54.02h-8.08c-6.27-14.61-10.18-21.4-15.14-28.71-7.83-11.49-12-13.83-31.32-13.83-11.99,0-19.29,1.31-23.22,2.34v70.45h4.71c20.09,0,23.47-2.09,27.14-7.83,3.64-6.26,5.74-12,8.34-21.4h7.56v70.98h-7.56c-2.6-9.15-4.7-15.67-8.34-22.45-4.19-7.04-6.79-8.09-27.14-8.09h-4.71v57.15c0,15.92,1.32,16.95,10.46,18.79l11.73,2.08v7.31h-88.71v-7.31Z"/>
  <path class="st1" d="M2445.26,688.19c0-50.09,35.49-71.48,70.71-71.48,37.83,0,70.97,22.69,70.97,70.18,0,50.1-34.95,72.01-70.97,72.01-37.83,0-70.71-22.96-70.71-70.71M2543.11,689.5c0-52.71-10.18-62.62-27.92-62.62-16.44,0-26.1,11.99-26.1,56.88,0,53.49,8.62,64.98,27.66,64.98,15.66,0,26.36-9.13,26.36-59.23"/>
  <path class="st1" d="M2618.4,724.2v-74.62c0-10.96-.52-12-8.1-16.44l-9.11-5.21v-5.48l55.81-5.73,3.16,2.34v94.97c0,15.39,5.98,21.41,17.73,21.41,9.39,0,18.27-3.13,24.53-5.22v-80.63c0-10.96-.78-12.27-8.35-16.44l-8.87-5.21v-5.48l55.58-5.73,3.13,2.34v105.42c0,12.77.77,14.34,8.61,17.48l7.56,3.13v6.25l-54.02,7.57-2.86-2.09.53-17.47h-1.31c-13.83,10.16-29.76,19.56-49.84,19.56s-34.18-11.74-34.18-34.7"/>
  <path class="st1" d="M2779.5,748.73l6.78-1.84c8.62-2.35,9.67-3.65,9.67-14.86v-81.15c0-11.21-1.31-12-8.62-16.96l-8.61-5.73v-5.22l55.06-6.27,2.87,1.83-.52,16.7h1.05c13.82-9.92,31.04-18.53,50.09-18.53,22.17,0,34.17,11.49,34.17,34.97v80.36c0,11.48,1.05,12.79,9.4,14.86l6.78,1.84v7.04h-72.79v-7.04l6.26-1.57c7.84-2.09,8.6-2.86,8.6-15.13v-70.19c0-15.92-5.73-20.88-18-20.88-9.13,0-18.53,2.08-24.27,3.4v87.67c0,12.52.8,13.04,8.62,15.13l6.25,1.57v7.04h-72.79v-7.04Z"/>
  <path class="st1" d="M2953.7,692.63c0-54.27,34.96-75.93,75.67-75.93,7.04,0,14.36,1.3,19.83,2.86,0,0-.53-9.65-.53-19.04v-8.35c0-12.27-1.31-13.3-8.09-16.7l-10.69-5.73v-6l58.44-5.24,2.6,2.1s-.78,12.26-.78,30.54v133.33c0,12.77.78,14.34,8.61,17.48l7.56,3.13v6.25l-54.02,7.57-2.86-2.09.52-14.86h-1.04c-11.22,9.65-25.83,16.95-44.08,16.95-25.84,0-51.15-18.79-51.15-66.27M3048.67,732.55v-94.45c-4.43-5.47-10.7-10.97-20.34-10.97-18.81,0-31.85,13.83-31.85,56.89s10.43,54.26,30.27,54.26c10.7,0,17.74-4.16,21.91-5.73"/>
  <path class="st1" d="M3130.49,724.46c0-22.96,17.46-33.13,46.96-40.19l26.35-6.53v-22.69c0-21.65-4.17-28.17-18.51-28.17-7.84,0-10.45,2.08-10.96,9.38-1.3,16.44-6.79,22.96-20.36,22.96-11.48,0-17.74-5.99-17.74-16.18,0-16.69,21.4-26.34,57.65-26.34,32.63,0,51.68,10.18,51.68,35.75v72.27c0,9.65,1.04,13.55,5.99,16.18,3.4,1.82,8.62,2.33,12.27,2.6v6.28c-4.95,3.91-15.41,9.12-30.52,9.12s-24.28-5.74-27.14-15.91h-1.3c-6.53,8.34-18.27,15.91-35.23,15.91-24.53,0-39.13-12.52-39.13-34.44M3203.8,732.8v-41.74l-12,1.04c-13.31,1.04-20.35,7.06-20.35,25.83,0,16.97,7.56,22.44,17.73,22.44,7.31,0,12.27-3.14,14.62-7.57"/>
  <path class="st1" d="M3294.78,722.9v-87.15h-16.45v-6.27c20.37-7.83,36.02-22.96,43.32-43.82h14.89v34.69h34.69l-3.39,15.4h-31.3v84.53c0,13.05,3.89,18.28,16.95,18.28,6.26,0,14.09-1.32,18.8-2.35v7.31c-6.28,5.73-19.33,15.39-41.23,15.39-23.49,0-36.27-10.45-36.27-36"/>
  <path class="st1" d="M3393.54,748.73l6.78-1.84c8.62-2.35,9.67-3.65,9.67-14.86v-81.15c0-11.21-1.31-12-8.62-16.97l-8.62-5.73v-5.21l57.14-6.27,2.6,1.83c-.51,8.09-1.03,17.48-1.03,30v83.5c0,11.74,1.03,12.78,9.67,14.86l6.77,1.84v7.04h-74.37v-7.04ZM3408.05,582.51c0-12.77,10.18-21.65,22.95-21.65s22.95,8.88,22.95,21.65-10.15,21.4-22.95,21.4-22.95-8.87-22.95-21.4"/>
  <path class="st1" d="M3484.27,688.19c0-50.09,35.49-71.48,70.71-71.48,37.83,0,70.97,22.69,70.97,70.18,0,50.1-34.95,72.01-70.97,72.01-37.83,0-70.71-22.96-70.71-70.71M3582.11,689.5c0-52.71-10.18-62.62-27.92-62.62-16.43,0-26.09,11.99-26.09,56.88,0,53.49,8.62,64.98,27.66,64.98,15.66,0,26.36-9.13,26.36-59.23"/>
  <path class="st1" d="M3644.43,748.73l6.78-1.84c8.62-2.35,9.68-3.65,9.68-14.86v-81.15c0-11.21-1.32-12-8.63-16.96l-8.61-5.73v-5.22l55.06-6.27,2.87,1.83-.52,16.7h1.05c13.81-9.92,31.04-18.53,50.09-18.53,22.18,0,34.18,11.49,34.18,34.97v80.36c0,11.48,1.04,12.79,9.39,14.86l6.78,1.84v7.04h-72.79v-7.04l6.25-1.57c7.84-2.09,8.6-2.86,8.6-15.13v-70.19c0-15.92-5.73-20.88-18-20.88-9.13,0-18.52,2.08-24.27,3.4v87.67c0,12.52.79,13.04,8.62,15.13l6.26,1.57v7.04h-72.81v-7.04Z"/>
  <path class="st1" d="M2583.13,437.58c0-34.44,26.21-49.71,70.45-60.28l39.52-9.79v-34.04c0-32.49-6.25-42.28-27.78-42.28-11.74,0-15.66,3.14-16.45,14.09-1.95,24.67-10.17,34.45-30.52,34.45-17.23,0-26.61-9.01-26.61-24.27,0-25.05,32.1-39.53,86.49-39.53,48.93,0,77.5,15.26,77.5,53.62v108.42c0,14.48,1.57,20.35,9,24.26,5.1,2.75,12.92,3.52,18.4,3.91v9.39c-7.45,5.87-23.09,13.7-45.79,13.7s-36.41-8.59-40.7-23.86h-1.95c-9.79,12.51-27.4,23.86-52.83,23.86-36.8,0-58.72-18.78-58.72-51.65M2693.1,450.1v-62.62l-17.99,1.57c-19.97,1.57-30.54,10.56-30.54,38.74,0,25.44,11.36,33.65,26.62,33.65,10.96,0,18.4-4.68,21.91-11.34"/>
  <path class="st1" d="M2841.7,473.98l10.18-2.75c12.93-3.51,14.48-5.47,14.48-22.3v-121.73c0-16.82-1.95-18-12.91-25.43l-12.92-8.62v-7.81l82.58-9.4,4.31,2.73-.79,25.07h1.57c20.75-14.88,46.59-27.79,75.15-27.79,33.27,0,51.27,17.21,51.27,52.44v120.55c0,17.22,1.57,19.18,14.1,22.3l10.17,2.75v10.58h-109.2v-10.58l9.39-2.35c11.75-3.12,12.92-4.3,12.92-22.69v-105.29c0-23.87-8.62-31.29-27.01-31.29-13.7,0-27.79,3.12-36.4,5.08v131.5c0,18.79,1.17,19.57,12.91,22.69l9.4,2.35v10.58h-109.2v-10.58Z"/>
  <path class="st1" d="M3125.57,383.17c0-75.13,53.24-107.23,106.07-107.23,56.76,0,106.44,34.05,106.44,105.27,0,75.15-52.43,108.02-106.44,108.02-56.76,0-106.07-34.44-106.07-106.07M3272.34,385.13c0-79.05-15.26-93.93-41.88-93.93-24.65,0-39.13,18-39.13,85.32,0,80.24,12.92,97.45,41.48,97.45,23.49,0,39.53-13.7,39.53-88.85"/>
  <path class="st1" d="M3414.81,435.23v-130.72h-24.67v-9.4c30.54-11.74,54.02-34.44,64.97-65.74h22.31v52.05h52.05l-5.08,23.1h-46.97v126.8c0,19.57,5.87,27.4,25.44,27.4,9.4,0,21.14-1.95,28.17-3.52v10.95c-9.4,8.62-28.96,23.09-61.84,23.09-35.22,0-54.39-15.66-54.39-54.01"/>
  <path class="st1" d="M3590.03,383.17c0-75.13,53.24-107.23,106.06-107.23,56.76,0,106.46,34.05,106.46,105.27,0,75.15-52.43,108.02-106.46,108.02-56.75,0-106.06-34.44-106.06-106.07M3736.8,385.13c0-79.05-15.26-93.93-41.87-93.93-24.66,0-39.14,18-39.14,85.32,0,80.24,12.91,97.45,41.48,97.45,23.5,0,39.53-13.7,39.53-88.85"/>
  <path class="st1" d="M2531.9,213.31h-240.57l-3.12,90.42h12.52c11.34-27.01,17.6-41.89,27.01-55.19,10.95-15.26,16.42-18.01,39.91-18.01h8.36v211.75c0,23.87-2.35,25.44-16.05,28.56l-14.48,2.75v10.97h132.28v-10.97l-14.48-2.75c-14.1-3.12-16.04-4.69-16.04-28.56v-211.75h8.34c23.49,0,28.96,2.75,39.92,18.01,9.4,13.3,15.66,28.18,27,55.19h12.54l-3.14-90.42Z"/>
  <rect class="st0" y="-1323.09" width="1940.97" height="972.19"/>
  <path class="st1" d="M213.32-574.63l8.87-1.82c7.82-1.81,10.18-3.13,10.18-19.04v-124.47c0-15.9-2.35-17.22-10.18-19.04l-8.87-1.82v-7.31h141.68l2.6,54.02h-8.08c-6.27-14.61-10.18-21.4-15.14-28.71-7.83-11.49-12-13.83-31.32-13.83-11.99,0-19.29,1.31-23.22,2.34v70.45h4.71c20.09,0,23.47-2.09,27.14-7.83,3.64-6.26,5.74-12,8.34-21.4h7.56v70.98h-7.56c-2.6-9.15-4.7-15.67-8.34-22.45-4.19-7.04-6.79-8.09-27.14-8.09h-4.71v57.15c0,15.92,1.32,16.95,10.46,18.79l11.73,2.08v7.31h-88.71v-7.31Z"/>
  <path class="st1" d="M370.36-634.9c0-50.09,35.49-71.48,70.71-71.48,37.83,0,70.97,22.69,70.97,70.18,0,50.1-34.95,72.01-70.97,72.01-37.83,0-70.71-22.96-70.71-70.71M468.21-633.59c0-52.71-10.18-62.62-27.92-62.62-16.44,0-26.1,11.99-26.1,56.88,0,53.49,8.62,64.98,27.66,64.98,15.66,0,26.36-9.13,26.36-59.23"/>
  <path class="st1" d="M543.5-598.89v-74.62c0-10.96-.52-12-8.1-16.44l-9.11-5.21v-5.48l55.81-5.73,3.16,2.34v94.97c0,15.39,5.98,21.41,17.73,21.41,9.39,0,18.27-3.13,24.53-5.22v-80.63c0-10.96-.78-12.27-8.35-16.44l-8.87-5.21v-5.48l55.58-5.73,3.13,2.34v105.42c0,12.77.77,14.34,8.61,17.48l7.56,3.13v6.25l-54.02,7.57-2.86-2.09.53-17.47h-1.31c-13.83,10.16-29.76,19.56-49.84,19.56s-34.18-11.74-34.18-34.7"/>
  <path class="st1" d="M704.61-574.36l6.78-1.84c8.62-2.35,9.67-3.65,9.67-14.86v-81.15c0-11.21-1.31-12-8.62-16.96l-8.61-5.73v-5.22l55.06-6.27,2.87,1.83-.52,16.7h1.05c13.82-9.92,31.04-18.53,50.09-18.53,22.17,0,34.17,11.49,34.17,34.97v80.36c0,11.48,1.05,12.79,9.4,14.86l6.78,1.84v7.04h-72.79v-7.04l6.26-1.57c7.84-2.09,8.6-2.86,8.6-15.13v-70.19c0-15.92-5.73-20.88-18-20.88-9.13,0-18.53,2.08-24.27,3.4v87.67c0,12.52.8,13.04,8.62,15.13l6.25,1.57v7.04h-72.79v-7.04Z"/>
  <path class="st1" d="M878.81-630.46c0-54.27,34.96-75.93,75.67-75.93,7.04,0,14.36,1.3,19.83,2.86,0,0-.53-9.65-.53-19.04v-8.35c0-12.27-1.31-13.3-8.09-16.7l-10.69-5.73v-6l58.44-5.24,2.6,2.1s-.78,12.26-.78,30.54v133.33c0,12.77.78,14.34,8.61,17.48l7.56,3.13v6.25l-54.02,7.57-2.86-2.09.52-14.86h-1.04c-11.22,9.65-25.83,16.95-44.08,16.95-25.84,0-51.15-18.79-51.15-66.27M973.78-590.54v-94.45c-4.43-5.47-10.7-10.97-20.34-10.97-18.81,0-31.85,13.83-31.85,56.89s10.43,54.26,30.27,54.26c10.7,0,17.74-4.16,21.91-5.73"/>
  <path class="st1" d="M1055.6-598.63c0-22.96,17.46-33.13,46.96-40.19l26.35-6.53v-22.69c0-21.65-4.17-28.17-18.51-28.17-7.84,0-10.45,2.08-10.96,9.38-1.3,16.44-6.79,22.96-20.36,22.96-11.48,0-17.74-5.99-17.74-16.18,0-16.69,21.4-26.34,57.65-26.34,32.63,0,51.68,10.18,51.68,35.75v72.27c0,9.65,1.04,13.55,5.99,16.18,3.4,1.82,8.62,2.33,12.27,2.6v6.28c-4.95,3.91-15.41,9.12-30.52,9.12s-24.28-5.74-27.14-15.91h-1.3c-6.53,8.34-18.27,15.91-35.23,15.91-24.53,0-39.13-12.52-39.13-34.44M1128.9-590.28v-41.74l-12,1.04c-13.31,1.04-20.35,7.06-20.35,25.83,0,16.97,7.56,22.44,17.73,22.44,7.31,0,12.27-3.14,14.62-7.57"/>
  <path class="st1" d="M1219.88-600.19v-87.15h-16.45v-6.27c20.37-7.83,36.02-22.96,43.32-43.82h14.89v34.69h34.69l-3.39,15.4h-31.3v84.53c0,13.05,3.89,18.28,16.95,18.28,6.26,0,14.09-1.32,18.8-2.35v7.31c-6.28,5.73-19.33,15.39-41.23,15.39-23.49,0-36.27-10.45-36.27-36"/>
  <path class="st1" d="M1318.65-574.36l6.78-1.84c8.62-2.35,9.67-3.65,9.67-14.86v-81.15c0-11.21-1.31-12-8.62-16.97l-8.62-5.73v-5.21l57.14-6.27,2.6,1.83c-.51,8.09-1.03,17.48-1.03,30v83.5c0,11.74,1.03,12.78,9.67,14.86l6.77,1.84v7.04h-74.37v-7.04ZM1333.15-740.57c0-12.77,10.18-21.65,22.95-21.65s22.95,8.88,22.95,21.65-10.15,21.4-22.95,21.4-22.95-8.87-22.95-21.4"/>
  <path class="st1" d="M1409.37-634.9c0-50.09,35.49-71.48,70.71-71.48,37.83,0,70.97,22.69,70.97,70.18,0,50.1-34.95,72.01-70.97,72.01-37.83,0-70.71-22.96-70.71-70.71M1507.22-633.59c0-52.71-10.18-62.62-27.92-62.62-16.43,0-26.09,11.99-26.09,56.88,0,53.49,8.62,64.98,27.66,64.98,15.66,0,26.36-9.13,26.36-59.23"/>
  <path class="st1" d="M1569.53-574.36l6.78-1.84c8.62-2.35,9.68-3.65,9.68-14.86v-81.15c0-11.21-1.32-12-8.63-16.96l-8.61-5.73v-5.22l55.06-6.27,2.87,1.83-.52,16.7h1.05c13.81-9.92,31.04-18.53,50.09-18.53,22.18,0,34.18,11.49,34.18,34.97v80.36c0,11.48,1.04,12.79,9.39,14.86l6.78,1.84v7.04h-72.79v-7.04l6.25-1.57c7.84-2.09,8.6-2.86,8.6-15.13v-70.19c0-15.92-5.73-20.88-18-20.88-9.13,0-18.52,2.08-24.27,3.4v87.67c0,12.52.79,13.04,8.62,15.13l6.26,1.57v7.04h-72.81v-7.04Z"/>
  <path class="st1" d="M508.24-885.5c0-34.44,26.21-49.71,70.45-60.28l39.52-9.79v-34.04c0-32.49-6.25-42.28-27.78-42.28-11.74,0-15.66,3.14-16.45,14.09-1.95,24.67-10.17,34.45-30.52,34.45-17.23,0-26.61-9.01-26.61-24.27,0-25.05,32.1-39.53,86.49-39.53,48.93,0,77.5,15.26,77.5,53.62v108.42c0,14.48,1.57,20.35,9,24.26,5.1,2.75,12.92,3.52,18.4,3.91v9.39c-7.45,5.87-23.09,13.7-45.79,13.7s-36.41-8.59-40.7-23.86h-1.95c-9.79,12.51-27.4,23.86-52.83,23.86-36.8,0-58.72-18.78-58.72-51.65M618.21-872.99v-62.62l-17.99,1.57c-19.97,1.57-30.54,10.56-30.54,38.74,0,25.44,11.36,33.65,26.62,33.65,10.96,0,18.4-4.68,21.91-11.34"/>
  <path class="st1" d="M766.81-849.11l10.18-2.75c12.93-3.51,14.48-5.47,14.48-22.3v-121.73c0-16.82-1.95-18-12.91-25.43l-12.92-8.62v-7.81l82.58-9.4,4.31,2.73-.79,25.07h1.57c20.75-14.88,46.59-27.79,75.15-27.79,33.27,0,51.27,17.21,51.27,52.44v120.55c0,17.22,1.57,19.18,14.1,22.3l10.17,2.75v10.58h-109.2v-10.58l9.39-2.35c11.75-3.12,12.92-4.3,12.92-22.69v-105.29c0-23.87-8.62-31.29-27.01-31.29-13.7,0-27.79,3.12-36.4,5.08v131.5c0,18.79,1.17,19.57,12.91,22.69l9.4,2.35v10.58h-109.2v-10.58Z"/>
  <path class="st1" d="M1050.68-939.92c0-75.13,53.24-107.23,106.07-107.23,56.76,0,106.44,34.05,106.44,105.27,0,75.15-52.43,108.02-106.44,108.02-56.76,0-106.07-34.44-106.07-106.07M1197.45-937.96c0-79.05-15.26-93.93-41.88-93.93-24.65,0-39.13,18-39.13,85.32,0,80.24,12.92,97.45,41.48,97.45,23.49,0,39.53-13.7,39.53-88.85"/>
  <path class="st1" d="M1339.91-887.86v-130.72h-24.67v-9.4c30.54-11.74,54.02-34.44,64.97-65.74h22.31v52.05h52.05l-5.08,23.1h-46.97v126.8c0,19.57,5.87,27.4,25.44,27.4,9.4,0,21.14-1.95,28.17-3.52v10.95c-9.4,8.62-28.96,23.09-61.84,23.09-35.22,0-54.39-15.66-54.39-54.01"/>
  <path class="st1" d="M1515.14-939.92c0-75.13,53.24-107.23,106.06-107.23,56.76,0,106.46,34.05,106.46,105.27,0,75.15-52.43,108.02-106.46,108.02-56.75,0-106.06-34.44-106.06-106.07M1661.9-937.96c0-79.05-15.26-93.93-41.87-93.93-24.66,0-39.14,18-39.14,85.32,0,80.24,12.91,97.45,41.48,97.45,23.5,0,39.53-13.7,39.53-88.85"/>
  <path class="st1" d="M457.01-1109.77h-240.57l-3.12,90.42h12.52c11.34-27.01,17.6-41.89,27.01-55.19,10.95-15.26,16.42-18.01,39.91-18.01h8.36v211.75c0,23.87-2.35,25.44-16.05,28.56l-14.48,2.75v10.97h132.28v-10.97l-14.48-2.75c-14.1-3.12-16.04-4.69-16.04-28.56v-211.75h8.34c23.49,0,28.96,2.75,39.92,18.01,9.4,13.3,15.66,28.18,27,55.19h12.54l-3.14-90.42Z"/>
  <rect class="st1" x="2089.31" y="-1323.09" width="1912.14" height="972.19"/>
  <rect class="st0" x="2103.76" y="-1308.64" width="1883.25" height="943.28"/>
  <path class="st1" d="M2310.73-582.45l8.6-1.77c7.59-1.76,9.87-3.03,9.87-18.48v-120.77c0-15.43-2.28-16.71-9.87-18.48l-8.6-1.76v-7.1h137.46l2.53,52.42h-7.84c-6.08-14.18-9.87-20.77-14.69-27.86-7.6-11.14-11.64-13.41-30.39-13.41-11.64,0-18.72,1.27-22.53,2.27v68.36h4.57c19.49,0,22.77-2.03,26.34-7.6,3.53-6.08,5.57-11.64,8.09-20.76h7.34v68.87h-7.34c-2.52-8.87-4.56-15.2-8.09-21.78-4.07-6.83-6.59-7.85-26.34-7.85h-4.57v55.45c0,15.44,1.28,16.45,10.15,18.23l11.38,2.01v7.1h-86.07v-7.1Z"/>
  <path class="st1" d="M2463.11-640.92c0-48.6,34.44-69.36,68.61-69.36,36.7,0,68.86,22.01,68.86,68.09,0,48.61-33.91,69.87-68.86,69.87-36.7,0-68.61-22.27-68.61-68.61M2558.05-639.65c0-51.14-9.88-60.76-27.09-60.76-15.96,0-25.32,11.64-25.32,55.19,0,51.89,8.36,63.05,26.84,63.05,15.19,0,25.57-8.86,25.57-57.47"/>
  <path class="st1" d="M2631.1-605.98v-72.41c0-10.64-.51-11.64-7.86-15.96l-8.84-5.05v-5.32l54.15-5.56,3.06,2.27v92.15c0,14.94,5.8,20.77,17.2,20.77,9.11,0,17.73-3.04,23.8-5.07v-78.23c0-10.64-.76-11.9-8.1-15.96l-8.61-5.05v-5.32l53.93-5.56,3.03,2.27v102.28c0,12.39.75,13.91,8.35,16.96l7.34,3.04v6.07l-52.41,7.35-2.78-2.03.51-16.95h-1.27c-13.41,9.86-28.87,18.98-48.35,18.98s-33.16-11.39-33.16-33.67"/>
  <path class="st1" d="M2787.41-582.18l6.58-1.78c8.36-2.28,9.38-3.54,9.38-14.42v-78.74c0-10.88-1.27-11.64-8.37-16.46l-8.35-5.56v-5.06l53.42-6.08,2.78,1.78-.51,16.2h1.02c13.41-9.62,30.12-17.98,48.6-17.98,21.51,0,33.15,11.14,33.15,33.93v77.97c0,11.14,1.02,12.41,9.12,14.42l6.58,1.78v6.83h-70.62v-6.83l6.08-1.53c7.6-2.03,8.35-2.77,8.35-14.68v-68.1c0-15.44-5.56-20.26-17.46-20.26-8.86,0-17.98,2.02-23.55,3.3v85.06c0,12.14.78,12.65,8.37,14.68l6.06,1.53v6.83h-70.63v-6.83Z"/>
  <path class="st1" d="M2956.43-636.61c0-52.66,33.92-73.67,73.42-73.67,6.83,0,13.93,1.26,19.24,2.77,0,0-.51-9.36-.51-18.48v-8.1c0-11.9-1.27-12.91-7.85-16.2l-10.37-5.56v-5.82l56.71-5.08,2.53,2.03s-.76,11.89-.76,29.63v129.36c0,12.39.76,13.91,8.35,16.96l7.34,3.03v6.07l-52.41,7.35-2.78-2.03.51-14.42h-1.01c-10.89,9.37-25.07,16.45-42.77,16.45-25.07,0-49.63-18.23-49.63-64.3M3048.58-597.88v-91.64c-4.3-5.31-10.38-10.64-19.73-10.64-18.25,0-30.9,13.41-30.9,55.2s10.12,52.64,29.37,52.64c10.38,0,17.21-4.04,21.26-5.56"/>
  <path class="st1" d="M3127.96-605.73c0-22.27,16.94-32.15,45.56-38.99l25.57-6.33v-22.02c0-21.01-4.04-27.33-17.96-27.33-7.6,0-10.14,2.02-10.64,9.1-1.26,15.95-6.59,22.27-19.75,22.27-11.14,0-17.21-5.81-17.21-15.7,0-16.19,20.76-25.56,55.94-25.56,31.66,0,50.15,9.88,50.15,34.69v70.12c0,9.36,1.01,13.15,5.81,15.7,3.3,1.76,8.36,2.26,11.9,2.52v6.09c-4.8,3.79-14.95,8.85-29.61,8.85s-23.56-5.57-26.33-15.44h-1.26c-6.34,8.1-17.73,15.44-34.18,15.44-23.8,0-37.97-12.14-37.97-33.41M3199.09-597.64v-40.5l-11.64,1.01c-12.92,1.01-19.74,6.85-19.74,25.07,0,16.46,7.33,21.77,17.2,21.77,7.1,0,11.9-3.05,14.19-7.35"/>
  <path class="st1" d="M3287.37-607.24v-84.56h-15.96v-6.08c19.76-7.6,34.95-22.27,42.03-42.52h14.44v33.66h33.66l-3.29,14.94h-30.37v82.02c0,12.66,3.78,17.73,16.44,17.73,6.08,0,13.67-1.28,18.24-2.28v7.09c-6.09,5.56-18.75,14.94-40,14.94-22.79,0-35.2-10.14-35.2-34.93"/>
  <path class="st1" d="M3383.19-582.18l6.58-1.78c8.36-2.28,9.38-3.54,9.38-14.42v-78.74c0-10.88-1.27-11.64-8.36-16.46l-8.36-5.56v-5.05l55.44-6.08,2.52,1.78c-.49,7.85-1,16.96-1,29.11v81.02c0,11.39,1,12.4,9.38,14.42l6.57,1.78v6.83h-72.16v-6.83ZM3397.27-743.45c0-12.39,9.88-21.01,22.27-21.01s22.27,8.62,22.27,21.01-9.85,20.76-22.27,20.76-22.27-8.61-22.27-20.76"/>
  <path class="st1" d="M3471.22-640.92c0-48.6,34.43-69.36,68.61-69.36,36.7,0,68.86,22.01,68.86,68.09,0,48.61-33.91,69.87-68.86,69.87-36.71,0-68.61-22.27-68.61-68.61M3566.15-639.65c0-51.14-9.88-60.76-27.09-60.76-15.94,0-25.32,11.64-25.32,55.19,0,51.89,8.36,63.05,26.84,63.05,15.19,0,25.57-8.86,25.57-57.47"/>
  <path class="st1" d="M3626.62-582.18l6.58-1.78c8.36-2.28,9.39-3.54,9.39-14.42v-78.74c0-10.88-1.28-11.64-8.37-16.46l-8.35-5.56v-5.06l53.42-6.08,2.78,1.78-.51,16.2h1.02c13.4-9.62,30.12-17.98,48.6-17.98,21.52,0,33.16,11.14,33.16,33.93v77.97c0,11.14,1.01,12.41,9.11,14.42l6.58,1.78v6.83h-70.62v-6.83l6.07-1.53c7.6-2.03,8.35-2.77,8.35-14.68v-68.1c0-15.44-5.56-20.26-17.46-20.26-8.86,0-17.97,2.02-23.55,3.3v85.06c0,12.14.77,12.65,8.37,14.68l6.08,1.53v6.83h-70.64v-6.83Z"/>
  <path class="st1" d="M2596.88-884.07c0-33.42,25.43-48.23,68.35-58.48l38.35-9.5v-33.03c0-31.52-6.07-41.02-26.95-41.02-11.39,0-15.19,3.05-15.96,13.67-1.89,23.94-9.87,33.43-29.61,33.43-16.71,0-25.82-8.74-25.82-23.54,0-24.3,31.14-38.36,83.92-38.36,47.47,0,75.2,14.8,75.2,52.03v105.19c0,14.05,1.52,19.74,8.73,23.54,4.94,2.67,12.54,3.42,17.85,3.8v9.11c-7.23,5.69-22.41,13.29-44.43,13.29s-35.33-8.34-39.49-23.15h-1.9c-9.5,12.14-26.59,23.15-51.26,23.15-35.7,0-56.97-18.22-56.97-50.12M2703.58-871.93v-60.75l-17.46,1.52c-19.37,1.53-29.63,10.25-29.63,37.59,0,24.68,11.03,32.65,25.83,32.65,10.63,0,17.85-4.54,21.25-11.01"/>
  <path class="st1" d="M2847.77-848.76l9.87-2.67c12.55-3.41,14.05-5.31,14.05-21.64v-118.11c0-16.32-1.9-17.46-12.53-24.68l-12.53-8.37v-7.58l80.13-9.12,4.18,2.65-.77,24.32h1.52c20.13-14.44,45.2-26.97,72.91-26.97,32.28,0,49.75,16.7,49.75,50.88v116.97c0,16.71,1.52,18.61,13.68,21.64l9.87,2.67v10.26h-105.95v-10.26l9.11-2.28c11.4-3.03,12.54-4.17,12.54-22.02v-102.16c0-23.16-8.37-30.36-26.2-30.36-13.29,0-26.96,3.03-35.32,4.93v127.59c0,18.23,1.14,18.99,12.53,22.02l9.12,2.28v10.26h-105.96v-10.26Z"/>
  <path class="st1" d="M3123.19-936.87c0-72.9,51.65-104.04,102.92-104.04,55.07,0,103.28,33.04,103.28,102.14,0,72.92-50.87,104.81-103.28,104.81-55.07,0-102.92-33.41-102.92-102.91M3265.59-934.97c0-76.7-14.81-91.13-40.63-91.13-23.92,0-37.97,17.46-37.97,82.79,0,77.85,12.53,94.56,40.24,94.56,22.79,0,38.36-13.3,38.36-86.21"/>
  <path class="st1" d="M3403.82-886.36v-126.83h-23.93v-9.12c29.63-11.39,52.42-33.42,63.04-63.79h21.65v50.5h50.5l-4.93,22.41h-45.57v123.03c0,18.98,5.69,26.59,24.68,26.59,9.12,0,20.51-1.9,27.34-3.42v10.62c-9.12,8.36-28.1,22.41-60,22.41-34.18,0-52.78-15.19-52.78-52.4"/>
  <path class="st1" d="M3573.84-936.87c0-72.9,51.65-104.04,102.91-104.04,55.07,0,103.29,33.04,103.29,102.14,0,72.92-50.87,104.81-103.29,104.81-55.06,0-102.91-33.41-102.91-102.91M3716.24-934.97c0-76.7-14.81-91.13-40.63-91.13-23.93,0-37.97,17.46-37.97,82.79,0,77.85,12.53,94.56,40.24,94.56,22.8,0,38.36-13.3,38.36-86.21"/>
  <path class="st1" d="M2547.18-1101.67h-233.42l-3.03,87.73h12.15c11.01-26.2,17.08-40.64,26.2-53.55,10.62-14.81,15.94-17.48,38.72-17.48h8.11v205.45c0,23.16-2.28,24.68-15.57,27.71l-14.05,2.67v10.64h128.35v-10.64l-14.05-2.67c-13.68-3.03-15.57-4.55-15.57-27.71v-205.45h8.1c22.79,0,28.1,2.67,38.73,17.48,9.12,12.91,15.19,27.34,26.2,53.55h12.16l-3.05-87.73Z"/>
</svg>